<mxfile host="Electron" modified="2023-05-15T11:06:17.030Z" agent="Mozilla/5.0 (Macintosh; Intel Mac OS X 10_15_7) AppleWebKit/537.36 (KHTML, like Gecko) draw.io/21.2.8 Chrome/112.0.5615.165 Electron/24.2.0 Safari/537.36" etag="cJ7dq-kQKzyOXuZ7OOwc" version="21.2.8" type="device">
  <diagram name="Page-1" id="pFgmJ1-kzaKzIzEzqhJo">
    <mxGraphModel dx="2201" dy="850" grid="1" gridSize="10" guides="1" tooltips="1" connect="1" arrows="1" fold="1" page="1" pageScale="1" pageWidth="827" pageHeight="1169" math="0" shadow="0">
      <root>
        <mxCell id="0" />
        <mxCell id="1" parent="0" />
        <mxCell id="18fLv4E7Vs8Tb1gYkqZB-18" style="edgeStyle=orthogonalEdgeStyle;rounded=0;orthogonalLoop=1;jettySize=auto;html=1;exitX=0.5;exitY=0;exitDx=0;exitDy=0;entryX=0.5;entryY=1;entryDx=0;entryDy=0;endArrow=block;endFill=0;strokeColor=#00CC00;strokeWidth=2;" edge="1" parent="1" source="18fLv4E7Vs8Tb1gYkqZB-4" target="18fLv4E7Vs8Tb1gYkqZB-6">
          <mxGeometry relative="1" as="geometry" />
        </mxCell>
        <mxCell id="18fLv4E7Vs8Tb1gYkqZB-4" value="language-specific JSON Schema for serialization format" style="rounded=1;whiteSpace=wrap;html=1;strokeWidth=2;fillColor=#e1d5e7;strokeColor=#9673a6;" vertex="1" parent="1">
          <mxGeometry x="320" y="520" width="120" height="60" as="geometry" />
        </mxCell>
        <mxCell id="18fLv4E7Vs8Tb1gYkqZB-19" style="edgeStyle=orthogonalEdgeStyle;rounded=0;orthogonalLoop=1;jettySize=auto;html=1;exitX=0.5;exitY=0;exitDx=0;exitDy=0;endArrow=block;endFill=0;strokeColor=#00CC00;strokeWidth=2;" edge="1" parent="1" source="18fLv4E7Vs8Tb1gYkqZB-5">
          <mxGeometry relative="1" as="geometry">
            <mxPoint x="480" y="460" as="targetPoint" />
            <Array as="points">
              <mxPoint x="580" y="490" />
              <mxPoint x="481" y="490" />
            </Array>
          </mxGeometry>
        </mxCell>
        <mxCell id="18fLv4E7Vs8Tb1gYkqZB-5" value="generic JSON Schema for serialization format" style="rounded=1;whiteSpace=wrap;html=1;strokeWidth=2;fillColor=#e1d5e7;strokeColor=#9673a6;" vertex="1" parent="1">
          <mxGeometry x="520" y="520" width="120" height="60" as="geometry" />
        </mxCell>
        <mxCell id="18fLv4E7Vs8Tb1gYkqZB-6" value="JSON meta-Schema" style="rounded=1;whiteSpace=wrap;html=1;strokeWidth=2;fillColor=#e1d5e7;strokeColor=#9673a6;" vertex="1" parent="1">
          <mxGeometry x="420" y="400" width="120" height="60" as="geometry" />
        </mxCell>
        <mxCell id="18fLv4E7Vs8Tb1gYkqZB-26" style="edgeStyle=orthogonalEdgeStyle;rounded=0;orthogonalLoop=1;jettySize=auto;html=1;exitX=0;exitY=0.5;exitDx=0;exitDy=0;entryX=1;entryY=0.5;entryDx=0;entryDy=0;strokeWidth=2;dashed=1;" edge="1" parent="1" source="18fLv4E7Vs8Tb1gYkqZB-7" target="18fLv4E7Vs8Tb1gYkqZB-25">
          <mxGeometry relative="1" as="geometry" />
        </mxCell>
        <mxCell id="18fLv4E7Vs8Tb1gYkqZB-29" value="generate" style="edgeLabel;html=1;align=center;verticalAlign=middle;resizable=0;points=[];" vertex="1" connectable="0" parent="18fLv4E7Vs8Tb1gYkqZB-26">
          <mxGeometry x="-0.1" y="-3" relative="1" as="geometry">
            <mxPoint y="-7" as="offset" />
          </mxGeometry>
        </mxCell>
        <mxCell id="18fLv4E7Vs8Tb1gYkqZB-7" value="LIonCore M3" style="rounded=1;whiteSpace=wrap;html=1;strokeWidth=2;fillColor=#dae8fc;strokeColor=#6c8ebf;" vertex="1" parent="1">
          <mxGeometry x="40" y="400" width="120" height="60" as="geometry" />
        </mxCell>
        <mxCell id="18fLv4E7Vs8Tb1gYkqZB-11" style="edgeStyle=orthogonalEdgeStyle;rounded=0;orthogonalLoop=1;jettySize=auto;html=1;exitX=0.5;exitY=0;exitDx=0;exitDy=0;entryX=0.5;entryY=1;entryDx=0;entryDy=0;endArrow=block;endFill=0;strokeWidth=2;" edge="1" parent="1" source="18fLv4E7Vs8Tb1gYkqZB-8" target="18fLv4E7Vs8Tb1gYkqZB-7">
          <mxGeometry relative="1" as="geometry" />
        </mxCell>
        <mxCell id="18fLv4E7Vs8Tb1gYkqZB-12" style="edgeStyle=orthogonalEdgeStyle;rounded=0;orthogonalLoop=1;jettySize=auto;html=1;exitX=1;exitY=0.5;exitDx=0;exitDy=0;entryX=0;entryY=0.5;entryDx=0;entryDy=0;dashed=1;strokeWidth=2;" edge="1" parent="1" source="18fLv4E7Vs8Tb1gYkqZB-8" target="18fLv4E7Vs8Tb1gYkqZB-4">
          <mxGeometry relative="1" as="geometry" />
        </mxCell>
        <mxCell id="18fLv4E7Vs8Tb1gYkqZB-13" value="&amp;nbsp;generate&amp;nbsp;" style="edgeLabel;html=1;align=center;verticalAlign=middle;resizable=0;points=[];" vertex="1" connectable="0" parent="18fLv4E7Vs8Tb1gYkqZB-12">
          <mxGeometry y="1" relative="1" as="geometry">
            <mxPoint y="-9" as="offset" />
          </mxGeometry>
        </mxCell>
        <mxCell id="18fLv4E7Vs8Tb1gYkqZB-24" style="edgeStyle=orthogonalEdgeStyle;rounded=0;orthogonalLoop=1;jettySize=auto;html=1;exitX=0;exitY=0.5;exitDx=0;exitDy=0;entryX=1;entryY=0.5;entryDx=0;entryDy=0;strokeWidth=2;dashed=1;" edge="1" parent="1" source="18fLv4E7Vs8Tb1gYkqZB-8" target="18fLv4E7Vs8Tb1gYkqZB-23">
          <mxGeometry relative="1" as="geometry" />
        </mxCell>
        <mxCell id="18fLv4E7Vs8Tb1gYkqZB-28" value="&amp;nbsp;serialize&amp;nbsp;" style="edgeLabel;html=1;align=center;verticalAlign=middle;resizable=0;points=[];" vertex="1" connectable="0" parent="18fLv4E7Vs8Tb1gYkqZB-24">
          <mxGeometry x="-0.0667" y="-4" relative="1" as="geometry">
            <mxPoint x="-4" y="-6" as="offset" />
          </mxGeometry>
        </mxCell>
        <mxCell id="18fLv4E7Vs8Tb1gYkqZB-8" value="M2" style="rounded=1;whiteSpace=wrap;html=1;strokeWidth=2;fillColor=#dae8fc;strokeColor=#6c8ebf;" vertex="1" parent="1">
          <mxGeometry x="40" y="520" width="120" height="60" as="geometry" />
        </mxCell>
        <mxCell id="18fLv4E7Vs8Tb1gYkqZB-10" style="edgeStyle=orthogonalEdgeStyle;rounded=0;orthogonalLoop=1;jettySize=auto;html=1;exitX=0.5;exitY=0;exitDx=0;exitDy=0;entryX=0.5;entryY=1;entryDx=0;entryDy=0;endArrow=block;endFill=0;strokeWidth=2;" edge="1" parent="1" source="18fLv4E7Vs8Tb1gYkqZB-9" target="18fLv4E7Vs8Tb1gYkqZB-8">
          <mxGeometry relative="1" as="geometry" />
        </mxCell>
        <mxCell id="18fLv4E7Vs8Tb1gYkqZB-15" style="edgeStyle=orthogonalEdgeStyle;rounded=0;orthogonalLoop=1;jettySize=auto;html=1;exitX=1;exitY=0.5;exitDx=0;exitDy=0;entryX=0;entryY=0.5;entryDx=0;entryDy=0;dashed=1;strokeWidth=2;" edge="1" parent="1" source="18fLv4E7Vs8Tb1gYkqZB-9" target="18fLv4E7Vs8Tb1gYkqZB-14">
          <mxGeometry relative="1" as="geometry" />
        </mxCell>
        <mxCell id="18fLv4E7Vs8Tb1gYkqZB-16" value="&amp;nbsp; serialize&amp;nbsp;" style="edgeLabel;html=1;align=center;verticalAlign=middle;resizable=0;points=[];" vertex="1" connectable="0" parent="18fLv4E7Vs8Tb1gYkqZB-15">
          <mxGeometry x="-0.1" y="2" relative="1" as="geometry">
            <mxPoint x="8" y="-8" as="offset" />
          </mxGeometry>
        </mxCell>
        <mxCell id="18fLv4E7Vs8Tb1gYkqZB-9" value="model (M1)" style="rounded=1;whiteSpace=wrap;html=1;strokeWidth=2;fillColor=#dae8fc;strokeColor=#6c8ebf;" vertex="1" parent="1">
          <mxGeometry x="40" y="640" width="120" height="60" as="geometry" />
        </mxCell>
        <mxCell id="18fLv4E7Vs8Tb1gYkqZB-17" style="edgeStyle=orthogonalEdgeStyle;rounded=0;orthogonalLoop=1;jettySize=auto;html=1;exitX=0.5;exitY=0;exitDx=0;exitDy=0;entryX=0.5;entryY=1;entryDx=0;entryDy=0;endArrow=block;endFill=0;strokeWidth=2;strokeColor=#00CC00;" edge="1" parent="1" source="18fLv4E7Vs8Tb1gYkqZB-14" target="18fLv4E7Vs8Tb1gYkqZB-4">
          <mxGeometry relative="1" as="geometry" />
        </mxCell>
        <mxCell id="18fLv4E7Vs8Tb1gYkqZB-20" style="edgeStyle=orthogonalEdgeStyle;rounded=0;orthogonalLoop=1;jettySize=auto;html=1;exitX=0.5;exitY=1;exitDx=0;exitDy=0;entryX=0.5;entryY=1;entryDx=0;entryDy=0;dashed=1;strokeWidth=2;strokeColor=#00CC00;" edge="1" parent="1" source="18fLv4E7Vs8Tb1gYkqZB-14" target="18fLv4E7Vs8Tb1gYkqZB-9">
          <mxGeometry relative="1" as="geometry">
            <Array as="points">
              <mxPoint x="380" y="730" />
              <mxPoint x="100" y="730" />
            </Array>
          </mxGeometry>
        </mxCell>
        <mxCell id="18fLv4E7Vs8Tb1gYkqZB-21" value="&amp;nbsp;deserialize&amp;nbsp;" style="edgeLabel;html=1;align=center;verticalAlign=middle;resizable=0;points=[];" vertex="1" connectable="0" parent="18fLv4E7Vs8Tb1gYkqZB-20">
          <mxGeometry x="0.0176" y="-1" relative="1" as="geometry">
            <mxPoint x="3" y="-9" as="offset" />
          </mxGeometry>
        </mxCell>
        <mxCell id="18fLv4E7Vs8Tb1gYkqZB-22" style="edgeStyle=orthogonalEdgeStyle;rounded=0;orthogonalLoop=1;jettySize=auto;html=1;exitX=0.5;exitY=0;exitDx=0;exitDy=0;entryX=0.5;entryY=1;entryDx=0;entryDy=0;endArrow=block;endFill=0;strokeWidth=2;strokeColor=#00CC00;" edge="1" parent="1" source="18fLv4E7Vs8Tb1gYkqZB-14" target="18fLv4E7Vs8Tb1gYkqZB-5">
          <mxGeometry relative="1" as="geometry" />
        </mxCell>
        <mxCell id="18fLv4E7Vs8Tb1gYkqZB-14" value="JSON serialization" style="rounded=1;whiteSpace=wrap;html=1;strokeWidth=2;fillColor=#e1d5e7;strokeColor=#9673a6;" vertex="1" parent="1">
          <mxGeometry x="320" y="640" width="120" height="60" as="geometry" />
        </mxCell>
        <mxCell id="18fLv4E7Vs8Tb1gYkqZB-27" style="edgeStyle=orthogonalEdgeStyle;rounded=0;orthogonalLoop=1;jettySize=auto;html=1;exitX=0.5;exitY=0;exitDx=0;exitDy=0;entryX=0.5;entryY=1;entryDx=0;entryDy=0;strokeWidth=2;strokeColor=#00CC00;endArrow=block;endFill=0;" edge="1" parent="1" source="18fLv4E7Vs8Tb1gYkqZB-23" target="18fLv4E7Vs8Tb1gYkqZB-25">
          <mxGeometry relative="1" as="geometry" />
        </mxCell>
        <mxCell id="18fLv4E7Vs8Tb1gYkqZB-30" style="edgeStyle=orthogonalEdgeStyle;rounded=0;orthogonalLoop=1;jettySize=auto;html=1;exitX=0.75;exitY=0;exitDx=0;exitDy=0;entryX=0.25;entryY=0;entryDx=0;entryDy=0;strokeWidth=2;strokeColor=#00CC00;endArrow=block;endFill=0;" edge="1" parent="1" source="18fLv4E7Vs8Tb1gYkqZB-23" target="18fLv4E7Vs8Tb1gYkqZB-5">
          <mxGeometry relative="1" as="geometry">
            <Array as="points">
              <mxPoint x="-110" y="500" />
              <mxPoint x="550" y="500" />
            </Array>
          </mxGeometry>
        </mxCell>
        <mxCell id="18fLv4E7Vs8Tb1gYkqZB-23" value="JSON serialization of language" style="rounded=1;whiteSpace=wrap;html=1;strokeWidth=2;fillColor=#e1d5e7;strokeColor=#9673a6;" vertex="1" parent="1">
          <mxGeometry x="-200" y="520" width="120" height="60" as="geometry" />
        </mxCell>
        <mxCell id="18fLv4E7Vs8Tb1gYkqZB-31" style="edgeStyle=orthogonalEdgeStyle;rounded=0;orthogonalLoop=1;jettySize=auto;html=1;exitX=0.75;exitY=0;exitDx=0;exitDy=0;entryX=0.25;entryY=0;entryDx=0;entryDy=0;strokeWidth=2;endArrow=block;endFill=0;strokeColor=#00CC00;" edge="1" parent="1" source="18fLv4E7Vs8Tb1gYkqZB-25" target="18fLv4E7Vs8Tb1gYkqZB-6">
          <mxGeometry relative="1" as="geometry" />
        </mxCell>
        <mxCell id="18fLv4E7Vs8Tb1gYkqZB-25" value="&amp;nbsp;LIonCore M3-specific JSON Schema for serialization format" style="rounded=1;whiteSpace=wrap;html=1;strokeWidth=2;fillColor=#e1d5e7;strokeColor=#9673a6;" vertex="1" parent="1">
          <mxGeometry x="-200" y="400" width="120" height="60" as="geometry" />
        </mxCell>
        <mxCell id="18fLv4E7Vs8Tb1gYkqZB-32" value="" style="rounded=0;whiteSpace=wrap;html=1;fillColor=none;strokeWidth=2;strokeColor=#00CC00;dashed=1;dashPattern=1 1;" vertex="1" parent="1">
          <mxGeometry x="30" y="510" width="420" height="230" as="geometry" />
        </mxCell>
        <mxCell id="18fLv4E7Vs8Tb1gYkqZB-33" value="" style="rounded=0;whiteSpace=wrap;html=1;fillColor=none;strokeWidth=2;strokeColor=#00CC00;dashed=1;dashPattern=1 1;" vertex="1" parent="1">
          <mxGeometry x="-210" y="490" width="380" height="100" as="geometry" />
        </mxCell>
        <mxCell id="18fLv4E7Vs8Tb1gYkqZB-34" value="" style="rounded=0;whiteSpace=wrap;html=1;fillColor=none;strokeWidth=2;strokeColor=#00CC00;dashed=1;dashPattern=1 1;" vertex="1" parent="1">
          <mxGeometry x="-210" y="370" width="380" height="110" as="geometry" />
        </mxCell>
        <mxCell id="18fLv4E7Vs8Tb1gYkqZB-35" value="validation of model serialization" style="text;html=1;strokeColor=none;fillColor=none;align=center;verticalAlign=middle;whiteSpace=wrap;rounded=0;" vertex="1" parent="1">
          <mxGeometry x="30" y="740" width="180" height="20" as="geometry" />
        </mxCell>
        <mxCell id="18fLv4E7Vs8Tb1gYkqZB-36" value="validation of language model serialization" style="text;html=1;strokeColor=none;fillColor=none;align=center;verticalAlign=middle;whiteSpace=wrap;rounded=0;" vertex="1" parent="1">
          <mxGeometry x="-210" y="590" width="230" height="20" as="geometry" />
        </mxCell>
        <mxCell id="18fLv4E7Vs8Tb1gYkqZB-37" value="validation of meta-language model serialization" style="text;html=1;strokeColor=none;fillColor=none;align=center;verticalAlign=middle;whiteSpace=wrap;rounded=0;" vertex="1" parent="1">
          <mxGeometry x="-210" y="350" width="260" height="20" as="geometry" />
        </mxCell>
        <mxCell id="18fLv4E7Vs8Tb1gYkqZB-39" style="edgeStyle=orthogonalEdgeStyle;rounded=1;orthogonalLoop=1;jettySize=auto;html=1;exitX=0.5;exitY=0;exitDx=0;exitDy=0;entryX=0.674;entryY=1.03;entryDx=0;entryDy=0;entryPerimeter=0;sketch=1;curveFitting=1;jiggle=2;strokeWidth=2;" edge="1" parent="1" source="18fLv4E7Vs8Tb1gYkqZB-38" target="18fLv4E7Vs8Tb1gYkqZB-33">
          <mxGeometry relative="1" as="geometry" />
        </mxCell>
        <mxCell id="18fLv4E7Vs8Tb1gYkqZB-38" value="Also do this with M2 = M3!" style="text;html=1;strokeColor=none;fillColor=none;align=center;verticalAlign=middle;whiteSpace=wrap;rounded=0;fontFamily=Marker Felt;" vertex="1" parent="1">
          <mxGeometry x="-165" y="670" width="140" height="20" as="geometry" />
        </mxCell>
      </root>
    </mxGraphModel>
  </diagram>
</mxfile>
